<svg viewBox="0 0 24 24" fill="none" xmlns="http://www.w3.org/2000/svg">
<path d="M12 21C16.9706 21 21 16.9706 21 12C21 7.02944 16.9706 3 12 3C7.02944 3 3 7.02944 3 12C3 16.9706 7.02944 21 12 21Z" fill="#D3D3D3"/>
<path d="M12 3C7.02944 3 3 7.02944 3 12C3 16.9706 7.02944 21 12 21" fill="#333333"/>
<!-- <path d="M12 3C13.6569 3 15.2588 3.64645 16.5858 4.97366C17.9129 6.30086 18.5 7.90217 18.5 9.5V14.5C18.5 16.0978 17.9129 17.6991 16.5858 19.0263C15.2588 20.3536 13.6569 21 12 21" stroke="#333333" stroke-width="1.5"/> -->
<!-- <path d="M12 3C10.3431 3 8.74117 3.64645 7.41421 4.97366C6.08704 6.30086 5.5 7.90217 5.5 9.5V14.5C5.5 16.0978 6.08704 17.6991 7.41421 19.0263C8.74117 20.3536 10.3431 21 12 21" stroke="#D3D3D3" stroke-width="1.5"/> -->
</svg>